<mxfile host="app.diagrams.net" agent="Mozilla/5.0 (Macintosh; Intel Mac OS X 10_15_7) AppleWebKit/537.36 (KHTML, like Gecko) Chrome/127.0.0.0 Safari/537.36" version="24.7.7">
  <diagram name="Page-1" id="e7e014a7-5840-1c2e-5031-d8a46d1fe8dd">
    <mxGraphModel dx="1687" dy="929" grid="1" gridSize="10" guides="1" tooltips="1" connect="1" arrows="1" fold="1" page="1" pageScale="1" pageWidth="1169" pageHeight="826" background="none" math="0" shadow="0">
      <root>
        <mxCell id="0" />
        <mxCell id="1" parent="0" />
        <mxCell id="2" value="Customer" style="swimlane;whiteSpace=wrap" parent="1" vertex="1">
          <mxGeometry x="150" y="128" width="290" height="1532" as="geometry" />
        </mxCell>
        <mxCell id="9" value="" style="endArrow=open;strokeColor=#FF0000;endFill=1;rounded=0" parent="2" target="8" edge="1">
          <mxGeometry relative="1" as="geometry">
            <mxPoint x="115" y="160" as="sourcePoint" />
          </mxGeometry>
        </mxCell>
        <mxCell id="11" value="" style="endArrow=open;strokeColor=#FF0000;endFill=1;rounded=0" parent="2" target="10" edge="1">
          <mxGeometry relative="1" as="geometry">
            <mxPoint x="115" y="270" as="sourcePoint" />
          </mxGeometry>
        </mxCell>
        <mxCell id="12" value="" style="edgeStyle=elbowEdgeStyle;elbow=horizontal;strokeColor=#FF0000;endArrow=open;endFill=1;rounded=0" parent="2" source="10" edge="1">
          <mxGeometry width="100" height="100" relative="1" as="geometry">
            <mxPoint x="160" y="290" as="sourcePoint" />
            <mxPoint x="60" y="135" as="targetPoint" />
            <Array as="points">
              <mxPoint x="30" y="250" />
            </Array>
          </mxGeometry>
        </mxCell>
        <mxCell id="XBPjzMlgGvLnMH6iU26w-45" value="" style="ellipse;html=1;shape=startState;fillColor=#000000;strokeColor=#ff0000;" vertex="1" parent="2">
          <mxGeometry x="125" y="42" width="30" height="30" as="geometry" />
        </mxCell>
        <mxCell id="XBPjzMlgGvLnMH6iU26w-46" value="" style="edgeStyle=orthogonalEdgeStyle;html=1;verticalAlign=bottom;endArrow=open;endSize=8;strokeColor=#ff0000;rounded=0;entryX=0.5;entryY=0;entryDx=0;entryDy=0;" edge="1" source="XBPjzMlgGvLnMH6iU26w-45" parent="2" target="XBPjzMlgGvLnMH6iU26w-47">
          <mxGeometry relative="1" as="geometry">
            <mxPoint x="140" y="132" as="targetPoint" />
          </mxGeometry>
        </mxCell>
        <mxCell id="XBPjzMlgGvLnMH6iU26w-47" value="Select the relevant furniture,food or other supplies" style="rounded=1;whiteSpace=wrap;html=1;arcSize=40;fontColor=#000000;fillColor=#ffffc0;strokeColor=#ff0000;" vertex="1" parent="2">
          <mxGeometry x="80" y="132" width="120" height="40" as="geometry" />
        </mxCell>
        <mxCell id="XBPjzMlgGvLnMH6iU26w-57" value="" style="edgeStyle=orthogonalEdgeStyle;rounded=0;orthogonalLoop=1;jettySize=auto;html=1;" edge="1" parent="2" source="XBPjzMlgGvLnMH6iU26w-54" target="XBPjzMlgGvLnMH6iU26w-56">
          <mxGeometry relative="1" as="geometry" />
        </mxCell>
        <mxCell id="XBPjzMlgGvLnMH6iU26w-54" value="Select payment option" style="rounded=1;whiteSpace=wrap;html=1;arcSize=40;fontColor=#000000;fillColor=#ffffc0;strokeColor=#ff0000;" vertex="1" parent="2">
          <mxGeometry x="80" y="242" width="120" height="40" as="geometry" />
        </mxCell>
        <mxCell id="XBPjzMlgGvLnMH6iU26w-59" value="" style="edgeStyle=orthogonalEdgeStyle;rounded=0;orthogonalLoop=1;jettySize=auto;html=1;" edge="1" parent="2" source="XBPjzMlgGvLnMH6iU26w-56" target="XBPjzMlgGvLnMH6iU26w-58">
          <mxGeometry relative="1" as="geometry" />
        </mxCell>
        <mxCell id="XBPjzMlgGvLnMH6iU26w-56" value="Select card type" style="rounded=1;whiteSpace=wrap;html=1;arcSize=40;fontColor=#000000;fillColor=#ffffc0;strokeColor=#ff0000;" vertex="1" parent="2">
          <mxGeometry x="80" y="362" width="120" height="40" as="geometry" />
        </mxCell>
        <mxCell id="XBPjzMlgGvLnMH6iU26w-58" value="Enter card details" style="rounded=1;whiteSpace=wrap;html=1;arcSize=40;fontColor=#000000;fillColor=#ffffc0;strokeColor=#ff0000;" vertex="1" parent="2">
          <mxGeometry x="80" y="482" width="120" height="40" as="geometry" />
        </mxCell>
        <mxCell id="XBPjzMlgGvLnMH6iU26w-68" value="Make payment" style="rounded=1;whiteSpace=wrap;html=1;arcSize=40;fontColor=#000000;fillColor=#ffffc0;strokeColor=#ff0000;" vertex="1" parent="2">
          <mxGeometry x="76" y="642" width="120" height="40" as="geometry" />
        </mxCell>
        <mxCell id="XBPjzMlgGvLnMH6iU26w-87" value="Condition" style="rhombus;whiteSpace=wrap;html=1;fontColor=#000000;fillColor=#ffffc0;strokeColor=#ff0000;" vertex="1" parent="2">
          <mxGeometry x="66" y="1002" width="80" height="40" as="geometry" />
        </mxCell>
        <mxCell id="XBPjzMlgGvLnMH6iU26w-88" value="Cancel payment&amp;nbsp;" style="edgeStyle=orthogonalEdgeStyle;html=1;align=left;verticalAlign=bottom;endArrow=open;endSize=8;strokeColor=#ff0000;rounded=0;exitX=1;exitY=0.5;exitDx=0;exitDy=0;entryX=0.5;entryY=0;entryDx=0;entryDy=0;" edge="1" source="XBPjzMlgGvLnMH6iU26w-87" parent="2" target="XBPjzMlgGvLnMH6iU26w-91">
          <mxGeometry x="-0.7692" relative="1" as="geometry">
            <mxPoint x="166" y="1182" as="targetPoint" />
            <Array as="points">
              <mxPoint x="206" y="1022" />
            </Array>
            <mxPoint as="offset" />
          </mxGeometry>
        </mxCell>
        <mxCell id="XBPjzMlgGvLnMH6iU26w-89" value="Confirm payment" style="edgeStyle=orthogonalEdgeStyle;html=1;align=left;verticalAlign=top;endArrow=open;endSize=8;strokeColor=#ff0000;rounded=0;exitX=0;exitY=0.5;exitDx=0;exitDy=0;entryX=0.03;entryY=0.364;entryDx=0;entryDy=0;entryPerimeter=0;" edge="1" source="XBPjzMlgGvLnMH6iU26w-87" parent="2" target="XBPjzMlgGvLnMH6iU26w-103">
          <mxGeometry x="-0.6365" y="4" relative="1" as="geometry">
            <mxPoint x="90" y="1442" as="targetPoint" />
            <Array as="points">
              <mxPoint x="26" y="1022" />
              <mxPoint x="26" y="1453" />
            </Array>
            <mxPoint as="offset" />
          </mxGeometry>
        </mxCell>
        <mxCell id="XBPjzMlgGvLnMH6iU26w-91" value="Choose cancel payment option" style="rounded=1;whiteSpace=wrap;html=1;arcSize=40;fontColor=#000000;fillColor=#ffffc0;strokeColor=#ff0000;" vertex="1" parent="2">
          <mxGeometry x="146" y="1152" width="120" height="40" as="geometry" />
        </mxCell>
        <mxCell id="XBPjzMlgGvLnMH6iU26w-104" style="edgeStyle=orthogonalEdgeStyle;rounded=0;orthogonalLoop=1;jettySize=auto;html=1;entryX=0.5;entryY=0;entryDx=0;entryDy=0;" edge="1" parent="2" source="XBPjzMlgGvLnMH6iU26w-99" target="XBPjzMlgGvLnMH6iU26w-103">
          <mxGeometry relative="1" as="geometry" />
        </mxCell>
        <mxCell id="XBPjzMlgGvLnMH6iU26w-99" value="Money refunds" style="rounded=1;whiteSpace=wrap;html=1;arcSize=40;fontColor=#000000;fillColor=#ffffc0;strokeColor=#ff0000;" vertex="1" parent="2">
          <mxGeometry x="80" y="1262" width="120" height="40" as="geometry" />
        </mxCell>
        <mxCell id="XBPjzMlgGvLnMH6iU26w-103" value="" style="ellipse;html=1;shape=endState;fillColor=#000000;strokeColor=#ff0000;" vertex="1" parent="2">
          <mxGeometry x="110" y="1442" width="30" height="30" as="geometry" />
        </mxCell>
        <mxCell id="XBPjzMlgGvLnMH6iU26w-67" value="yes" style="edgeStyle=orthogonalEdgeStyle;html=1;align=left;verticalAlign=top;endArrow=open;endSize=8;strokeColor=#ff0000;rounded=0;exitX=0.5;exitY=1;exitDx=0;exitDy=0;entryX=0.5;entryY=0;entryDx=0;entryDy=0;" edge="1" parent="2" target="XBPjzMlgGvLnMH6iU26w-68">
          <mxGeometry x="-1" relative="1" as="geometry">
            <mxPoint x="140" y="642" as="targetPoint" />
            <mxPoint x="444.7499999999998" y="568.9999999999998" as="sourcePoint" />
            <Array as="points">
              <mxPoint x="445" y="572" />
              <mxPoint x="444" y="572" />
              <mxPoint x="444" y="622" />
              <mxPoint x="136" y="622" />
            </Array>
          </mxGeometry>
        </mxCell>
        <mxCell id="3" value="System" style="swimlane;whiteSpace=wrap" parent="1" vertex="1">
          <mxGeometry x="440" y="127" width="320" height="1533" as="geometry" />
        </mxCell>
        <mxCell id="17" value="" style="endArrow=open;strokeColor=#FF0000;endFill=1;rounded=0" parent="3" target="16" edge="1">
          <mxGeometry relative="1" as="geometry">
            <mxPoint x="75" y="160" as="sourcePoint" />
          </mxGeometry>
        </mxCell>
        <mxCell id="19" value="" style="endArrow=open;strokeColor=#FF0000;endFill=1;rounded=0" parent="3" target="18" edge="1">
          <mxGeometry relative="1" as="geometry">
            <mxPoint x="75" y="270" as="sourcePoint" />
          </mxGeometry>
        </mxCell>
        <mxCell id="XBPjzMlgGvLnMH6iU26w-49" value="Give multiple payment options" style="rounded=1;whiteSpace=wrap;html=1;arcSize=40;fontColor=#000000;fillColor=#ffffc0;strokeColor=#ff0000;" vertex="1" parent="3">
          <mxGeometry x="80.5" y="132" width="120" height="40" as="geometry" />
        </mxCell>
        <mxCell id="XBPjzMlgGvLnMH6iU26w-65" value="if valid details" style="rhombus;whiteSpace=wrap;html=1;fontColor=#000000;fillColor=#ffffc0;strokeColor=#ff0000;" vertex="1" parent="3">
          <mxGeometry x="101" y="522" width="99.5" height="48" as="geometry" />
        </mxCell>
        <mxCell id="XBPjzMlgGvLnMH6iU26w-71" value="Save payment details" style="rounded=1;whiteSpace=wrap;html=1;arcSize=40;fontColor=#000000;fillColor=#ffffc0;strokeColor=#ff0000;" vertex="1" parent="3">
          <mxGeometry x="100" y="712" width="120" height="40" as="geometry" />
        </mxCell>
        <mxCell id="XBPjzMlgGvLnMH6iU26w-79" style="edgeStyle=orthogonalEdgeStyle;rounded=0;orthogonalLoop=1;jettySize=auto;html=1;entryX=0.5;entryY=0;entryDx=0;entryDy=0;" edge="1" parent="3" source="XBPjzMlgGvLnMH6iU26w-74" target="XBPjzMlgGvLnMH6iU26w-78">
          <mxGeometry relative="1" as="geometry">
            <Array as="points">
              <mxPoint x="226" y="852" />
            </Array>
          </mxGeometry>
        </mxCell>
        <mxCell id="XBPjzMlgGvLnMH6iU26w-80" style="edgeStyle=orthogonalEdgeStyle;rounded=0;orthogonalLoop=1;jettySize=auto;html=1;" edge="1" parent="3" source="XBPjzMlgGvLnMH6iU26w-74" target="XBPjzMlgGvLnMH6iU26w-77">
          <mxGeometry relative="1" as="geometry">
            <Array as="points">
              <mxPoint x="100" y="852" />
              <mxPoint x="101" y="852" />
            </Array>
          </mxGeometry>
        </mxCell>
        <mxCell id="XBPjzMlgGvLnMH6iU26w-74" value="" style="shape=line;html=1;strokeWidth=6;strokeColor=#ff0000;" vertex="1" parent="3">
          <mxGeometry x="60" y="802" width="200" height="10" as="geometry" />
        </mxCell>
        <mxCell id="XBPjzMlgGvLnMH6iU26w-76" style="edgeStyle=orthogonalEdgeStyle;rounded=0;orthogonalLoop=1;jettySize=auto;html=1;entryX=0.498;entryY=0.722;entryDx=0;entryDy=0;entryPerimeter=0;" edge="1" parent="3" source="XBPjzMlgGvLnMH6iU26w-71" target="XBPjzMlgGvLnMH6iU26w-74">
          <mxGeometry relative="1" as="geometry" />
        </mxCell>
        <mxCell id="XBPjzMlgGvLnMH6iU26w-77" value="update financial records" style="rounded=1;whiteSpace=wrap;html=1;arcSize=40;fontColor=#000000;fillColor=#ffffc0;strokeColor=#ff0000;" vertex="1" parent="3">
          <mxGeometry x="40.5" y="892" width="120" height="40" as="geometry" />
        </mxCell>
        <mxCell id="XBPjzMlgGvLnMH6iU26w-78" value="Show payment summary&amp;nbsp;" style="rounded=1;whiteSpace=wrap;html=1;arcSize=40;fontColor=#000000;fillColor=#ffffc0;strokeColor=#ff0000;" vertex="1" parent="3">
          <mxGeometry x="165.5" y="892" width="120" height="40" as="geometry" />
        </mxCell>
        <mxCell id="XBPjzMlgGvLnMH6iU26w-81" value="" style="html=1;points=[];perimeter=orthogonalPerimeter;fillColor=strokeColor;rotation=90;" vertex="1" parent="3">
          <mxGeometry x="161.25" y="901.75" width="9.5" height="159" as="geometry" />
        </mxCell>
        <mxCell id="XBPjzMlgGvLnMH6iU26w-84" style="edgeStyle=orthogonalEdgeStyle;rounded=0;orthogonalLoop=1;jettySize=auto;html=1;entryX=0.227;entryY=0.912;entryDx=0;entryDy=0;entryPerimeter=0;" edge="1" parent="3" source="XBPjzMlgGvLnMH6iU26w-77" target="XBPjzMlgGvLnMH6iU26w-81">
          <mxGeometry relative="1" as="geometry" />
        </mxCell>
        <mxCell id="XBPjzMlgGvLnMH6iU26w-85" style="edgeStyle=orthogonalEdgeStyle;rounded=0;orthogonalLoop=1;jettySize=auto;html=1;entryX=0.122;entryY=0.126;entryDx=0;entryDy=0;entryPerimeter=0;" edge="1" parent="3" source="XBPjzMlgGvLnMH6iU26w-78" target="XBPjzMlgGvLnMH6iU26w-81">
          <mxGeometry relative="1" as="geometry" />
        </mxCell>
        <mxCell id="XBPjzMlgGvLnMH6iU26w-98" style="edgeStyle=orthogonalEdgeStyle;rounded=0;orthogonalLoop=1;jettySize=auto;html=1;" edge="1" parent="3" source="XBPjzMlgGvLnMH6iU26w-93" target="XBPjzMlgGvLnMH6iU26w-95">
          <mxGeometry relative="1" as="geometry" />
        </mxCell>
        <mxCell id="XBPjzMlgGvLnMH6iU26w-93" value="Payment cancelled in payment option" style="rounded=1;whiteSpace=wrap;html=1;arcSize=40;fontColor=#000000;fillColor=#ffffc0;strokeColor=#ff0000;" vertex="1" parent="3">
          <mxGeometry x="100" y="1153" width="120" height="40" as="geometry" />
        </mxCell>
        <mxCell id="XBPjzMlgGvLnMH6iU26w-95" value="Condition" style="rhombus;whiteSpace=wrap;html=1;fontColor=#000000;fillColor=#ffffc0;strokeColor=#ff0000;" vertex="1" parent="3">
          <mxGeometry x="120" y="1263" width="80" height="40" as="geometry" />
        </mxCell>
        <mxCell id="XBPjzMlgGvLnMH6iU26w-97" value="time exceeded" style="edgeStyle=orthogonalEdgeStyle;html=1;align=left;verticalAlign=top;endArrow=open;endSize=8;strokeColor=#ff0000;rounded=0;entryX=0.5;entryY=0;entryDx=0;entryDy=0;" edge="1" source="XBPjzMlgGvLnMH6iU26w-95" parent="3" target="XBPjzMlgGvLnMH6iU26w-101">
          <mxGeometry x="-1" relative="1" as="geometry">
            <mxPoint x="160" y="1363" as="targetPoint" />
          </mxGeometry>
        </mxCell>
        <mxCell id="XBPjzMlgGvLnMH6iU26w-101" value="No money refunds" style="rounded=1;whiteSpace=wrap;html=1;arcSize=40;fontColor=#000000;fillColor=#ffffc0;strokeColor=#ff0000;" vertex="1" parent="3">
          <mxGeometry x="101" y="1373" width="120" height="40" as="geometry" />
        </mxCell>
        <mxCell id="20" value="" style="endArrow=open;strokeColor=#FF0000;endFill=1;rounded=0" parent="1" target="18" edge="1">
          <mxGeometry relative="1" as="geometry">
            <mxPoint x="334.5" y="478" as="sourcePoint" />
          </mxGeometry>
        </mxCell>
        <mxCell id="XBPjzMlgGvLnMH6iU26w-42" value="" style="edgeStyle=orthogonalEdgeStyle;rounded=0;orthogonalLoop=1;jettySize=auto;html=1;" edge="1" parent="1" target="XBPjzMlgGvLnMH6iU26w-41">
          <mxGeometry relative="1" as="geometry">
            <mxPoint x="574.5" y="263" as="sourcePoint" />
          </mxGeometry>
        </mxCell>
        <mxCell id="XBPjzMlgGvLnMH6iU26w-55" value="" style="edgeStyle=orthogonalEdgeStyle;rounded=0;orthogonalLoop=1;jettySize=auto;html=1;" edge="1" parent="1" target="XBPjzMlgGvLnMH6iU26w-54">
          <mxGeometry relative="1" as="geometry">
            <mxPoint x="584.5000000000002" y="308" as="sourcePoint" />
            <Array as="points">
              <mxPoint x="584.5" y="398" />
            </Array>
          </mxGeometry>
        </mxCell>
        <mxCell id="XBPjzMlgGvLnMH6iU26w-64" value="" style="edgeStyle=orthogonalEdgeStyle;rounded=0;orthogonalLoop=1;jettySize=auto;html=1;entryX=0.5;entryY=0;entryDx=0;entryDy=0;" edge="1" parent="1" source="XBPjzMlgGvLnMH6iU26w-58" target="XBPjzMlgGvLnMH6iU26w-65">
          <mxGeometry relative="1" as="geometry">
            <mxPoint x="464" y="630" as="targetPoint" />
          </mxGeometry>
        </mxCell>
        <mxCell id="XBPjzMlgGvLnMH6iU26w-66" value="no" style="edgeStyle=orthogonalEdgeStyle;html=1;align=left;verticalAlign=bottom;endArrow=open;endSize=8;strokeColor=#ff0000;rounded=0;entryX=0.5;entryY=1;entryDx=0;entryDy=0;exitX=0;exitY=0.5;exitDx=0;exitDy=0;" edge="1" source="XBPjzMlgGvLnMH6iU26w-65" parent="1" target="XBPjzMlgGvLnMH6iU26w-58">
          <mxGeometry x="-0.8391" y="-4" relative="1" as="geometry">
            <mxPoint x="660" y="620" as="targetPoint" />
            <Array as="points">
              <mxPoint x="290" y="674" />
            </Array>
            <mxPoint as="offset" />
          </mxGeometry>
        </mxCell>
        <mxCell id="XBPjzMlgGvLnMH6iU26w-72" style="edgeStyle=orthogonalEdgeStyle;rounded=0;orthogonalLoop=1;jettySize=auto;html=1;" edge="1" parent="1" source="XBPjzMlgGvLnMH6iU26w-68" target="XBPjzMlgGvLnMH6iU26w-71">
          <mxGeometry relative="1" as="geometry" />
        </mxCell>
        <mxCell id="XBPjzMlgGvLnMH6iU26w-73" style="edgeStyle=orthogonalEdgeStyle;rounded=0;orthogonalLoop=1;jettySize=auto;html=1;" edge="1" parent="1" source="XBPjzMlgGvLnMH6iU26w-47" target="XBPjzMlgGvLnMH6iU26w-49">
          <mxGeometry relative="1" as="geometry" />
        </mxCell>
        <mxCell id="XBPjzMlgGvLnMH6iU26w-94" value="" style="edgeStyle=orthogonalEdgeStyle;rounded=0;orthogonalLoop=1;jettySize=auto;html=1;" edge="1" parent="1" source="XBPjzMlgGvLnMH6iU26w-91" target="XBPjzMlgGvLnMH6iU26w-93">
          <mxGeometry relative="1" as="geometry" />
        </mxCell>
        <mxCell id="XBPjzMlgGvLnMH6iU26w-96" value="time remaining" style="edgeStyle=orthogonalEdgeStyle;html=1;align=left;verticalAlign=bottom;endArrow=open;endSize=8;strokeColor=#ff0000;rounded=0;exitX=0;exitY=0.5;exitDx=0;exitDy=0;entryX=1;entryY=0.5;entryDx=0;entryDy=0;" edge="1" source="XBPjzMlgGvLnMH6iU26w-95" parent="1" target="XBPjzMlgGvLnMH6iU26w-99">
          <mxGeometry x="1" y="-10" relative="1" as="geometry">
            <mxPoint x="490" y="1410" as="targetPoint" />
            <mxPoint as="offset" />
          </mxGeometry>
        </mxCell>
        <mxCell id="XBPjzMlgGvLnMH6iU26w-90" style="edgeStyle=orthogonalEdgeStyle;rounded=0;orthogonalLoop=1;jettySize=auto;html=1;exitX=1.053;exitY=0.406;exitDx=0;exitDy=0;exitPerimeter=0;entryX=0.5;entryY=0;entryDx=0;entryDy=0;" edge="1" parent="1" source="XBPjzMlgGvLnMH6iU26w-81" target="XBPjzMlgGvLnMH6iU26w-87">
          <mxGeometry relative="1" as="geometry">
            <mxPoint x="610.7539999999997" y="1109.9955" as="sourcePoint" />
            <mxPoint x="267" y="1130" as="targetPoint" />
            <Array as="points">
              <mxPoint x="610" y="1114" />
              <mxPoint x="610" y="1119" />
              <mxPoint x="256" y="1119" />
            </Array>
          </mxGeometry>
        </mxCell>
        <mxCell id="XBPjzMlgGvLnMH6iU26w-102" style="edgeStyle=orthogonalEdgeStyle;rounded=0;orthogonalLoop=1;jettySize=auto;html=1;entryX=1;entryY=0.5;entryDx=0;entryDy=0;" edge="1" parent="1" source="XBPjzMlgGvLnMH6iU26w-101" target="XBPjzMlgGvLnMH6iU26w-103">
          <mxGeometry relative="1" as="geometry">
            <mxPoint x="310" y="1570" as="targetPoint" />
          </mxGeometry>
        </mxCell>
      </root>
    </mxGraphModel>
  </diagram>
</mxfile>
